<svg width="42" height="38" viewBox="0 0 42 38" fill="none" xmlns="http://www.w3.org/2000/svg">
  <g filter="url(#filter0_dd_810_96327)">
    <rect x="5" y="3" width="32" height="28" rx="4" fill="white" />
    <path
      d="M13 23.75C12.7833 23.75 12.6043 23.6793 12.463 23.538C12.321 23.396 12.25 23.2167 12.25 23C12.25 22.7833 12.321 22.604 12.463 22.462C12.6043 22.3207 12.7833 22.25 13 22.25H17C17.2167 22.25 17.396 22.3207 17.538 22.462C17.6793 22.604 17.75 22.7833 17.75 23C17.75 23.2167 17.6793 23.396 17.538 23.538C17.396 23.6793 17.2167 23.75 17 23.75H13ZM13 11.75C12.7833 11.75 12.6043 11.679 12.463 11.537C12.321 11.3957 12.25 11.2167 12.25 11C12.25 10.7833 12.321 10.6043 12.463 10.463C12.6043 10.321 12.7833 10.25 13 10.25H21C21.2167 10.25 21.396 10.321 21.538 10.463C21.6793 10.6043 21.75 10.7833 21.75 11C21.75 11.2167 21.6793 11.3957 21.538 11.537C21.396 11.679 21.2167 11.75 21 11.75H13ZM21 25.75C20.7833 25.75 20.6043 25.6793 20.463 25.538C20.321 25.396 20.25 25.2167 20.25 25V21C20.25 20.7833 20.321 20.604 20.463 20.462C20.6043 20.3207 20.7833 20.25 21 20.25C21.2167 20.25 21.396 20.3207 21.538 20.462C21.6793 20.604 21.75 20.7833 21.75 21V22.25H29C29.2167 22.25 29.396 22.3207 29.538 22.462C29.6793 22.604 29.75 22.7833 29.75 23C29.75 23.2167 29.6793 23.396 29.538 23.538C29.396 23.6793 29.2167 23.75 29 23.75H21.75V25C21.75 25.2167 21.6793 25.396 21.538 25.538C21.396 25.6793 21.2167 25.75 21 25.75ZM17 19.75C16.7833 19.75 16.6043 19.679 16.463 19.537C16.321 19.3957 16.25 19.2167 16.25 19V17.75H13C12.7833 17.75 12.6043 17.679 12.463 17.537C12.321 17.3957 12.25 17.2167 12.25 17C12.25 16.7833 12.321 16.604 12.463 16.462C12.6043 16.3207 12.7833 16.25 13 16.25H16.25V15C16.25 14.7833 16.321 14.604 16.463 14.462C16.6043 14.3207 16.7833 14.25 17 14.25C17.2167 14.25 17.396 14.3207 17.538 14.462C17.6793 14.604 17.75 14.7833 17.75 15V19C17.75 19.2167 17.6793 19.3957 17.538 19.537C17.396 19.679 17.2167 19.75 17 19.75ZM21 17.75C20.7833 17.75 20.6043 17.679 20.463 17.537C20.321 17.3957 20.25 17.2167 20.25 17C20.25 16.7833 20.321 16.604 20.463 16.462C20.6043 16.3207 20.7833 16.25 21 16.25H29C29.2167 16.25 29.396 16.3207 29.538 16.462C29.6793 16.604 29.75 16.7833 29.75 17C29.75 17.2167 29.6793 17.3957 29.538 17.537C29.396 17.679 29.2167 17.75 29 17.75H21ZM25 13.75C24.7833 13.75 24.6043 13.679 24.463 13.537C24.321 13.3957 24.25 13.2167 24.25 13V9C24.25 8.78333 24.321 8.604 24.463 8.462C24.6043 8.32067 24.7833 8.25 25 8.25C25.2167 8.25 25.396 8.32067 25.538 8.462C25.6793 8.604 25.75 8.78333 25.75 9V10.25H29C29.2167 10.25 29.396 10.321 29.538 10.463C29.6793 10.6043 29.75 10.7833 29.75 11C29.75 11.2167 29.6793 11.3957 29.538 11.537C29.396 11.679 29.2167 11.75 29 11.75H25.75V13C25.75 13.2167 25.6793 13.3957 25.538 13.537C25.396 13.679 25.2167 13.75 25 13.75Z"
      fill="#545969" />
    <rect x="5.5" y="3.5" width="31" height="27" rx="3.5" stroke="#DEDFE1" />
  </g>
  <defs>
    <filter id="filter0_dd_810_96327" x="0" y="0" width="42" height="38"
      filterUnits="userSpaceOnUse" color-interpolation-filters="sRGB">
      <feFlood flood-opacity="0" result="BackgroundImageFix" />
      <feColorMatrix in="SourceAlpha" type="matrix"
        values="0 0 0 0 0 0 0 0 0 0 0 0 0 0 0 0 0 0 127 0" result="hardAlpha" />
      <feOffset dy="2" />
      <feGaussianBlur stdDeviation="2.5" />
      <feColorMatrix type="matrix"
        values="0 0 0 0 0.235294 0 0 0 0 0.258824 0 0 0 0 0.341176 0 0 0 0.08 0" />
      <feBlend mode="normal" in2="BackgroundImageFix" result="effect1_dropShadow_810_96327" />
      <feColorMatrix in="SourceAlpha" type="matrix"
        values="0 0 0 0 0 0 0 0 0 0 0 0 0 0 0 0 0 0 127 0" result="hardAlpha" />
      <feOffset dy="1" />
      <feGaussianBlur stdDeviation="0.5" />
      <feColorMatrix type="matrix" values="0 0 0 0 0 0 0 0 0 0 0 0 0 0 0 0 0 0 0.12 0" />
      <feBlend mode="normal" in2="effect1_dropShadow_810_96327"
        result="effect2_dropShadow_810_96327" />
      <feBlend mode="normal" in="SourceGraphic" in2="effect2_dropShadow_810_96327" result="shape" />
    </filter>
  </defs>
</svg>

